<?xml version="1.0" standalone="no"?>
<!DOCTYPE svg PUBLIC "-//W3C//DTD SVG 20010904//EN"
 "http://www.w3.org/TR/2001/REC-SVG-20010904/DTD/svg10.dtd">
<svg version="1.0" xmlns="http://www.w3.org/2000/svg"
 width="500.000000pt" height="500.000000pt" viewBox="0 0 500.000000 500.000000"
 preserveAspectRatio="xMidYMid meet">
<metadata>
Created by potrace 1.14, written by Peter Selinger 2001-2017
</metadata>
<g transform="translate(0.000000,500.000000) scale(0.100000,-0.100000)"
fill="#000000" stroke="none">
<path d="M285 4831 c-22 -10 -54 -34 -72 -52 -67 -71 -63 27 -63 -1417 0 -959
3 -1318 11 -1342 17 -47 1732 -1827 1790 -1857 l43 -23 1338 0 c1101 0 1344 2
1371 13 47 20 95 64 118 109 19 38 20 62 19 2227 0 1546 -3 2197 -11 2217 -19
52 -61 96 -113 120 l-51 24 -2170 0 c-2093 0 -2171 -1 -2210 -19z m3378 -766
c108 -16 226 -53 302 -93 78 -42 185 -155 228 -241 21 -41 34 -78 29 -83 -14
-14 -252 -157 -272 -163 -15 -5 -25 5 -46 46 -35 71 -112 150 -176 182 -179
89 -458 45 -580 -92 -115 -129 -169 -385 -139 -651 22 -185 72 -302 167 -390
130 -119 380 -147 558 -61 86 42 184 172 202 269 5 23 12 32 26 32 26 0 278
-129 284 -145 8 -19 -51 -154 -98 -227 -141 -217 -395 -323 -719 -298 -250 19
-405 84 -549 230 -137 139 -213 297 -246 511 -24 153 -14 410 19 539 71 272
203 448 417 555 170 85 376 113 593 80z m-2322 -715 c188 -575 230 -695 245
-695 17 0 39 65 410 1223 l55 172 189 0 c105 0 190 -4 190 -9 0 -5 -141 -426
-314 -937 l-313 -929 -225 -3 -224 -2 -313 927 c-173 511 -316 934 -319 941
-3 10 37 12 194 10 l199 -3 226 -695z m2930 -1806 c27 -20 49 -41 49 -47 -1
-15 -85 -77 -105 -77 -20 0 -19 26 3 42 22 17 21 51 -2 77 -16 17 -15 41 1 41
3 0 27 -16 54 -36z m-3121 -24 c0 -13 -7 -20 -20 -20 -13 0 -20 7 -20 20 0 13
7 20 20 20 13 0 20 -7 20 -20z m64 14 c9 -3 16 -15 16 -26 0 -14 -5 -18 -16
-14 -9 3 -18 6 -20 6 -2 0 -4 9 -4 20 0 22 1 23 24 14z m96 -24 c0 -13 -7 -20
-20 -20 -13 0 -20 7 -20 20 0 13 7 20 20 20 13 0 20 -7 20 -20z m80 0 c0 -13
-7 -20 -20 -20 -13 0 -20 7 -20 20 0 13 7 20 20 20 13 0 20 -7 20 -20z m80 0
c0 -13 -7 -20 -20 -20 -13 0 -20 7 -20 20 0 13 7 20 20 20 13 0 20 -7 20 -20z
m80 0 c0 -13 -7 -20 -20 -20 -13 0 -20 7 -20 20 0 13 7 20 20 20 13 0 20 -7
20 -20z m80 -1 c0 -14 -5 -19 -17 -17 -26 5 -29 38 -4 38 15 0 21 -6 21 -21z
m80 1 c0 -13 -7 -20 -20 -20 -13 0 -20 7 -20 20 0 13 7 20 20 20 13 0 20 -7
20 -20z m80 0 c0 -13 -7 -20 -20 -20 -13 0 -20 7 -20 20 0 13 7 20 20 20 13 0
20 -7 20 -20z m80 0 c0 -13 -7 -20 -20 -20 -13 0 -20 7 -20 20 0 13 7 20 20
20 13 0 20 -7 20 -20z m80 0 c0 -13 -7 -20 -20 -20 -13 0 -20 7 -20 20 0 13 7
20 20 20 13 0 20 -7 20 -20z m80 0 c0 -13 -7 -20 -20 -20 -13 0 -20 7 -20 20
0 13 7 20 20 20 13 0 20 -7 20 -20z m80 0 c0 -13 -7 -20 -20 -20 -13 0 -20 7
-20 20 0 13 7 20 20 20 13 0 20 -7 20 -20z m80 0 c0 -13 -7 -20 -20 -20 -13 0
-20 7 -20 20 0 13 7 20 20 20 13 0 20 -7 20 -20z m80 0 c0 -13 -7 -20 -20 -20
-13 0 -20 7 -20 20 0 13 7 20 20 20 13 0 20 -7 20 -20z m80 0 c0 -13 -7 -20
-20 -20 -13 0 -20 7 -20 20 0 13 7 20 20 20 13 0 20 -7 20 -20z m80 0 c0 -13
-7 -20 -20 -20 -13 0 -20 7 -20 20 0 13 7 20 20 20 13 0 20 -7 20 -20z m80 0
c0 -13 -7 -20 -20 -20 -13 0 -20 7 -20 20 0 13 7 20 20 20 13 0 20 -7 20 -20z
m80 0 c0 -13 -7 -20 -20 -20 -13 0 -20 7 -20 20 0 13 7 20 20 20 13 0 20 -7
20 -20z m80 0 c0 -13 -7 -20 -20 -20 -13 0 -20 7 -20 20 0 13 7 20 20 20 13 0
20 -7 20 -20z m80 0 c0 -13 -7 -20 -20 -20 -13 0 -20 7 -20 20 0 13 7 20 20
20 13 0 20 -7 20 -20z m78 -7 c3 -17 -1 -20 -17 -16 -26 7 -29 46 -3 41 9 -2
18 -13 20 -25z m82 -4 c0 -14 -5 -19 -17 -17 -26 5 -29 38 -4 38 15 0 21 -6
21 -21z m80 0 c0 -14 -5 -19 -17 -17 -26 5 -29 38 -4 38 15 0 21 -6 21 -21z
m80 0 c0 -14 -5 -19 -17 -17 -26 5 -29 38 -4 38 15 0 21 -6 21 -21z m83 1 c-7
-25 -36 -23 -41 3 -3 12 3 17 21 17 20 0 24 -4 20 -20z m85 3 c-2 -10 -12 -18
-23 -18 -11 0 -21 8 -23 18 -3 13 3 17 23 17 20 0 26 -4 23 -17z m80 0 c-2
-10 -12 -18 -23 -18 -11 0 -21 8 -23 18 -3 13 3 17 23 17 20 0 26 -4 23 -17z
m80 0 c-2 -10 -12 -18 -23 -18 -11 0 -21 8 -23 18 -3 13 3 17 23 17 20 0 26
-4 23 -17z m80 0 c-2 -10 -12 -18 -23 -18 -11 0 -21 8 -23 18 -3 13 3 17 23
17 20 0 26 -4 23 -17z m80 0 c-2 -10 -12 -18 -23 -18 -11 0 -21 8 -23 18 -3
13 3 17 23 17 20 0 26 -4 23 -17z m82 -4 c0 -15 -5 -20 -22 -17 -34 5 -37 38
-4 38 20 0 26 -5 26 -21z m80 1 c0 -15 -7 -20 -25 -20 -18 0 -25 5 -25 20 0
15 7 20 25 20 18 0 25 -5 25 -20z m80 0 c0 -15 -7 -20 -25 -20 -18 0 -25 5
-25 20 0 15 7 20 25 20 18 0 25 -5 25 -20z m80 0 c0 -15 -7 -20 -25 -20 -18 0
-25 5 -25 20 0 15 7 20 25 20 18 0 25 -5 25 -20z m80 0 c0 -15 -7 -20 -25 -20
-18 0 -25 5 -25 20 0 15 7 20 25 20 18 0 25 -5 25 -20z m78 -2 c3 -13 -3 -18
-22 -18 -20 0 -26 5 -26 21 0 15 5 20 22 17 13 -2 24 -11 26 -20z m80 -1 c3
-12 -3 -17 -22 -17 -25 0 -35 18 -19 34 12 12 38 2 41 -17z m80 0 c3 -12 -3
-17 -22 -17 -25 0 -35 18 -19 34 12 12 38 2 41 -17z m-508 -288 c-32 -5 -17
-7 53 -5 63 2 94 0 85 -6 -8 -6 7 -8 45 -5 32 2 52 0 45 -4 -8 -5 10 -9 42 -9
56 0 281 -28 289 -36 2 -2 -3 -4 -13 -4 -9 0 -15 -4 -11 -10 4 -6 15 -6 31 0
16 6 23 6 19 0 -3 -5 10 -12 30 -16 19 -3 35 -11 35 -16 0 -6 7 -7 16 -4 20 8
46 -18 38 -38 -8 -20 -14 -20 -28 0 -16 22 -41 9 -43 -23 -1 -19 1 -22 8 -12
7 11 9 10 9 -4 0 -13 5 -17 19 -12 12 3 21 0 25 -10 3 -8 16 -19 28 -24 16 -6
23 -17 24 -37 0 -16 4 -37 8 -46 7 -16 2 -18 -36 -18 -24 0 -48 -4 -53 -9 -6
-5 -37 -13 -69 -18 -38 -5 -63 -14 -70 -25 -14 -24 0 -35 21 -16 30 26 67 26
78 0 5 -12 16 -20 22 -17 8 2 13 -4 13 -17 0 -15 3 -18 13 -10 7 6 18 7 26 3
10 -7 8 -11 -10 -16 -13 -5 -26 -7 -28 -6 -2 2 -8 -3 -12 -11 -7 -10 -9 -10
-9 0 0 6 -7 12 -15 12 -10 0 -15 -7 -13 -17 2 -14 -3 -18 -27 -16 -16 1 -36 3
-44 5 -7 1 -16 -2 -18 -9 -3 -8 5 -12 19 -11 50 2 69 -3 88 -22 11 -11 28 -20
38 -21 14 0 14 -2 -3 -9 -18 -8 -18 -9 -2 -9 10 -1 17 -7 15 -13 -12 -36 -455
-50 -1388 -46 -884 4 -930 7 -930 49 0 10 5 19 11 19 8 0 7 5 -1 15 -7 9 -22
15 -33 13 -24 -4 -35 -28 -13 -28 9 0 16 5 16 12 0 6 3 9 6 5 3 -3 3 -15 -1
-26 -8 -27 -45 -28 -45 -1 0 24 -34 46 -77 49 -10 1 -26 15 -35 31 -19 33 -14
37 16 15 17 -13 21 -12 32 3 7 9 14 19 14 22 0 6 -44 10 -117 11 -55 0 -59 3
-43 29 7 11 12 12 20 4 14 -14 60 -6 60 10 0 6 5 4 10 -4 7 -12 9 -10 8 7 -2
19 -4 20 -23 7 -26 -17 -38 -8 -24 18 8 14 8 23 0 31 -11 11 -16 -1 -11 -32 1
-9 -4 -12 -14 -8 -9 4 -16 1 -16 -5 0 -6 -8 -4 -18 5 -10 10 -29 17 -41 17
-25 0 -61 17 -61 29 0 11 69 31 86 24 9 -3 14 1 14 12 0 10 -5 14 -12 9 -9 -5
-9 -3 0 7 11 12 16 11 31 -7 l17 -21 28 23 c15 13 37 24 48 24 l22 0 -22 20
c-39 36 -32 42 73 59 45 8 41 9 -45 10 -114 1 -211 16 -222 33 -11 18 19 38
55 38 24 0 27 3 22 20 -5 15 0 22 19 30 33 12 234 26 421 29 83 2 179 6 215
10 l65 8 -80 4 c-123 5 379 14 880 15 248 1 430 -3 405 -7z m-1542 -16 c-21
-2 -57 -2 -80 0 -24 2 -7 4 37 4 44 0 63 -2 43 -4z m1865 0 c-7 -2 -21 -2 -30
0 -10 3 -4 5 12 5 17 0 24 -2 18 -5z m-2080 -10 c-7 -2 -19 -2 -25 0 -7 3 -2
5 12 5 14 0 19 -2 13 -5z m74 1 c-3 -3 -12 -4 -19 -1 -8 3 -5 6 6 6 11 1 17
-2 13 -5z m2488 -154 c-8 -13 -50 5 -53 23 -3 15 0 15 27 1 17 -9 29 -20 26
-24z m-75 10 c0 -11 -4 -20 -9 -20 -5 0 -7 9 -4 20 3 11 7 20 9 20 2 0 4 -9 4
-20z m60 -114 c0 -11 -19 -15 -25 -6 -3 5 1 10 9 10 9 0 16 -2 16 -4z m-2750
-10 c0 -3 -4 -8 -10 -11 -5 -3 -10 -1 -10 4 0 6 5 11 10 11 6 0 10 -2 10 -4z"/>
<path d="M4240 969 c0 -5 9 -9 20 -9 11 0 20 2 20 4 0 2 -9 6 -20 9 -11 3 -20
1 -20 -4z"/>
<path d="M4340 960 c0 -5 5 -10 11 -10 5 0 7 5 4 10 -3 6 -8 10 -11 10 -2 0
-4 -4 -4 -10z"/>
<path d="M1924 948 c-3 -4 11 -8 30 -8 19 0 38 5 41 10 4 7 -7 10 -30 8 -20
-1 -39 -6 -41 -10z"/>
<path d="M2010 952 c0 -4 19 -6 43 -4 70 5 76 10 15 11 -32 0 -58 -2 -58 -7z"/>
<path d="M1900 910 c0 -5 5 -10 11 -10 5 0 7 5 4 10 -3 6 -8 10 -11 10 -2 0
-4 -4 -4 -10z"/>
<path d="M4170 830 c0 -5 5 -10 11 -10 5 0 7 5 4 10 -3 6 -8 10 -11 10 -2 0
-4 -4 -4 -10z"/>
<path d="M4276 803 c-11 -11 -6 -23 9 -23 8 0 15 4 15 9 0 13 -16 22 -24 14z"/>
<path d="M1996 735 c8 -21 36 -28 32 -8 -2 9 -11 17 -20 19 -10 1 -15 -3 -12
-11z"/>
<path d="M2040 740 c0 -5 5 -10 10 -10 6 0 10 5 10 10 0 6 -4 10 -10 10 -5 0
-10 -4 -10 -10z"/>
<path d="M1955 710 c3 -5 8 -10 11 -10 2 0 4 5 4 10 0 6 -5 10 -11 10 -5 0 -7
-4 -4 -10z"/>
</g>
</svg>
